<svg width="150" height="163" viewBox="0 0 150 163" fill="none" xmlns="http://www.w3.org/2000/svg">
<path id="Vector" d="M41.8945 103.442H107.91L114.941 30.1707C115.853 20.5709 114.518 13.1425 110.938 7.88552C107.357 2.62851 101.628 0 93.75 0H56.25C48.3724 0 42.6107 2.62851 38.9648 7.88552C35.319 13.1425 33.9518 20.5709 34.8633 30.1707L41.8945 103.442ZM100 131.654H50V156.339C50 158.167 49.3978 159.735 48.1934 161.041C46.9889 162.347 45.5078 163 43.75 163H31.25C29.4922 163 28.0111 162.412 26.8066 161.237C25.6022 160.061 25 158.559 25 156.731L24.9023 130.184C22.6237 129.205 20.6217 127.948 18.8965 126.413C17.1712 124.879 15.7715 123.001 14.6973 120.781C13.623 118.56 12.7441 116.356 12.0605 114.169C11.377 111.981 10.8724 109.271 10.5469 106.038C10.2214 102.806 10.0098 99.8832 9.91211 97.271C9.81445 94.6589 9.76562 91.3936 9.76562 87.4754C6.90104 86.8876 4.55729 85.4999 2.73438 83.3122C0.911458 81.1245 0 78.4307 0 75.2308C0 71.639 1.25326 68.6513 3.75977 66.2677C6.26628 63.8841 10.1562 62.6923 15.4297 62.6923C17.7083 62.6923 19.6452 63.0188 21.2402 63.6719C22.8353 64.3249 24.1536 65.3535 25.1953 66.7575C26.237 68.1616 27.0182 69.4023 27.5391 70.4799C28.0599 71.5574 28.6458 73.0757 29.2969 75.0349L33.1055 107.459C33.6263 110.136 34.1471 111.671 34.668 112.062C35.319 112.585 36.7513 112.846 38.9648 112.846H110.84C113.249 112.846 114.697 112.585 115.186 112.062C115.674 111.54 116.178 110.005 116.699 107.459L120.508 75.0349C121.159 73.0757 121.745 71.5574 122.266 70.4799C122.786 69.4023 123.568 68.1616 124.609 66.7575C125.651 65.3535 126.969 64.3249 128.564 63.6719C130.16 63.0188 132.096 62.6923 134.375 62.6923C139.648 62.6923 143.571 63.8841 146.143 66.2677C148.714 68.6513 150 71.639 150 75.2308C150 78.3654 149.072 81.0429 147.217 83.2632C145.361 85.4836 142.969 86.8876 140.039 87.4754C140.039 91.4589 139.99 94.7405 139.893 97.32C139.795 99.8995 139.583 102.838 139.258 106.136C138.932 109.434 138.444 112.193 137.793 114.413C137.142 116.634 136.279 118.87 135.205 121.123C134.131 123.377 132.731 125.27 131.006 126.805C129.281 128.34 127.279 129.597 125 130.576V156.731C125 158.559 124.398 160.061 123.193 161.237C121.989 162.412 120.508 163 118.75 163H106.25C104.492 163 103.011 162.412 101.807 161.237C100.602 160.061 100 158.559 100 156.731V131.654Z" fill="#BB86FC"/>
</svg>
